# xmcd
#
# Track frame offsets: 
#        150
#        12786
#        29358
#        46027
#        65754
#        82862
#        97608
#        115085
#        134366
#        152575
#        165009
#        177805
#        190086
#        201071
#        213700
#        226587
#        236882
#        251475
#        269795
#        280536
#        292378
#        322561
#        337231
#
# Disc length: 4678 seconds
#
# Revision: 0
# Processed by: cddbd v1.5.2PL0 Copyright (c) Steve Scherf et al.
# Submitted via: ExactAudioCopy v0.95b3
#
DISCID=34124417
DTITLE=The Pogues  - Just Look Them Straight In The Eye And Say...Pogu
DTITLE=e Mahone!! [CD 4)
DYEAR=1900
DGENRE=
TTITLE0=Sally Maclennane
TTITLE1=A Pair Of Brown Eyes
TTITLE2=Kitty
TTITLE3=Maggie May
TTITLE4=Dirty Old Town
TTITLE5=The Sickbed of Cuchulainn
TTITLE6=Fiesta
TTITLE7=I Should Fall From Grace With God
TTITLE8=Johnny Come Lately
TTITLE9=Boat Train
TTITLE10=Night Train To Lorca
TTITLE11=The Mistle Thrush
TTITLE12=Got A Lot Of Livin' To Do
TTITLE13=Victoria
TTITLE14=Murder [Version 1]
TTITLE15=Lust For Vomit
TTITLE16=The Wake Of The Medusa
TTITLE17=The Black Dogs Ditch
TTITLE18=Aisling
TTITLE19=Murder [Version 2]
TTITLE20=Yeah Yeah Yeah Yeah
TTITLE21=Maidrín Rua
TTITLE22=Johnny Come Lately
EXTD=
EXTT0=
EXTT1=
EXTT2=
EXTT3=
EXTT4=
EXTT5=
EXTT6=
EXTT7=
EXTT8=
EXTT9=
EXTT10=
EXTT11=
EXTT12=
EXTT13=
EXTT14=
EXTT15=
EXTT16=
EXTT17=
EXTT18=
EXTT19=
EXTT20=
EXTT21=
EXTT22=
PLAYORDER=
